<?xml version="1.0" encoding="UTF-8" standalone="no"?>
<!DOCTYPE svg PUBLIC "-//W3C//DTD SVG 1.1//EN" "http://www.w3.org/Graphics/SVG/1.1/DTD/svg11.dtd">
<svg width="100%" height="100%" viewBox="0 0 1100 300" version="1.1" xmlns="http://www.w3.org/2000/svg" xmlns:xlink="http://www.w3.org/1999/xlink" xml:space="preserve" xmlns:serif="http://www.serif.com/" style="fill-rule:evenodd;clip-rule:evenodd;stroke-linejoin:round;stroke-miterlimit:2;">
    <g transform="matrix(1,0,0,1,-1250,-1050)">
        <g id="_-LigaNFC--Branding--Dark-Lite-" serif:id="[LigaNFC] Branding (Dark Lite)" transform="matrix(1.01852,0,0,0.277778,1250,1050)">
            <rect x="0" y="0" width="1080" height="1080" style="fill:none;"/>
            <g transform="matrix(1.22721,0,0,4.49976,-145.112,-1619.91)">
                <path d="M888.385,510C864.999,561.739 810.552,600.013 754.675,600.013C688.447,600.013 645.13,546.244 658.004,480.017C670.877,413.789 735.097,360.02 801.325,360.02C857.189,360.02 896.752,398.278 900.039,450L838.778,450C831.88,432.083 814.84,420.02 792.661,420.02C759.552,420.02 727.446,446.901 721.01,480.01C714.574,513.119 736.23,540 769.339,540C791.527,540 813.264,527.928 827.127,510L888.385,510Z" style="fill:white;"/>
            </g>
            <g transform="matrix(1.22721,0,0,4.49976,-125.806,-1619.91)">
                <path d="M628.897,420L533.56,420L500.319,600L441.607,600L486.047,360L486.057,360.012L486.059,360L640.007,360L628.897,420Z" style="fill:white;"/>
            </g>
            <g transform="matrix(398.08,0,0,1459.63,95.4185,1080.03)">
                <path d="M0.828,-0.74L0.647,-0.74L0.569,-0.277L0.567,-0.275L0.367,-0.74L0.204,-0.74L0.067,0L0.248,0L0.326,-0.449L0.328,-0.45L0.527,0L0.691,0L0.828,-0.74Z" style="fill:white;fill-rule:nonzero;"/>
            </g>
            <g transform="matrix(1.22578,0,0,4.49451,500.942,-1617.4)">
                <path d="M174.814,450L163.703,510L100.796,510L111.907,450L174.814,450Z" style="fill:rgb(255,0,104);"/>
            </g>
            <g transform="matrix(1.22578,0,0,4.49451,-122.578,-1617.4)">
                <path d="M604.755,450L593.644,510L100,510L111.11,450L604.755,450Z" style="fill:rgb(255,0,104);"/>
            </g>
            <g transform="matrix(1.22526,0,0,4.49263,166.89,-1905.07)">
                <path d="M410.5,522L417.261,536.194L432.85,538.238L421.44,549.055L424.313,564.512L410.5,557.003L396.687,564.512L399.56,549.055L388.15,538.238L403.739,536.194L410.5,522Z" style="fill:white;"/>
            </g>
            <g transform="matrix(64.4513,0,0,236.322,542.337,627.59)">
                <path d="M0.732,0L0.559,-0.74L0.452,-0.74L0.007,0L0.158,0L0.272,-0.191L0.537,-0.191L0.581,0L0.732,0ZM0.512,-0.32L0.342,-0.32L0.468,-0.547L0.47,-0.547L0.512,-0.32Z" style="fill:white;fill-rule:nonzero;"/>
            </g>
            <g transform="matrix(64.4513,0,0,236.322,486.973,627.59)">
                <path d="M0.887,-0.377L0.404,-0.377L0.38,-0.249L0.69,-0.249C0.635,-0.169 0.544,-0.113 0.446,-0.113C0.318,-0.113 0.228,-0.195 0.228,-0.324C0.228,-0.339 0.229,-0.354 0.232,-0.369C0.26,-0.51 0.388,-0.627 0.534,-0.627C0.608,-0.627 0.681,-0.592 0.713,-0.523L0.877,-0.523C0.871,-0.555 0.858,-0.586 0.841,-0.613C0.779,-0.708 0.672,-0.755 0.561,-0.755C0.323,-0.755 0.089,-0.542 0.089,-0.299C0.089,-0.11 0.238,0.015 0.422,0.015C0.636,0.015 0.845,-0.151 0.884,-0.361L0.887,-0.377Z" style="fill:white;fill-rule:nonzero;"/>
            </g>
            <g transform="matrix(64.4513,0,0,236.322,467.702,627.59)">
                <path d="M0.346,-0.74L0.209,-0.74L0.072,0L0.209,0L0.346,-0.74Z" style="fill:white;fill-rule:nonzero;"/>
            </g>
            <g transform="matrix(64.4513,0,0,236.322,434.445,627.59)">
                <path d="M0.459,-0.128L0.233,-0.128L0.346,-0.74L0.209,-0.74L0.072,0L0.435,0L0.459,-0.128Z" style="fill:white;fill-rule:nonzero;"/>
            </g>
        </g>
    </g>
</svg>
